<svg width="30" height="30" viewBox="0 0 30 30" fill="none" xmlns="http://www.w3.org/2000/svg">
<rect width="30" height="30" rx="5" fill="#DCFCE7"/>
<path d="M8 19.1071V9.72716C8 9.46242 8.10863 9.25992 8.32589 9.11965C8.54255 8.97939 8.77245 8.96244 9.01559 9.06881L17.7262 12.6946C17.873 12.7536 17.9621 12.8407 17.9934 12.9558C18.0247 13.0709 18.0178 13.1805 17.9726 13.2845C17.9275 13.3886 17.8523 13.4704 17.7469 13.53C17.641 13.5902 17.5089 13.5899 17.3506 13.5291L8.90274 10.0647V13.4704L10.9556 13.9297C11.0976 13.966 11.2041 14.0314 11.2752 14.1261C11.3468 14.2219 11.3826 14.3292 11.3826 14.4478C11.3826 14.5665 11.3468 14.6737 11.2752 14.7695C11.2041 14.8642 11.0976 14.9294 10.9556 14.965L8.90274 15.4261V18.831L13.5338 16.9278C13.6686 16.867 13.7875 16.8641 13.8904 16.919C13.9933 16.9734 14.0676 17.0517 14.1134 17.154C14.1597 17.2563 14.1672 17.3647 14.136 17.4792C14.1047 17.5943 14.0153 17.6814 13.8678 17.7404L9.021 19.7602C8.77786 19.8654 8.54706 19.849 8.3286 19.7111C8.11014 19.5732 8.0006 19.3716 8 19.1062M19.389 22C18.3834 22 17.53 21.6599 16.8288 20.9796C16.1283 20.2988 15.778 19.47 15.778 18.4935C15.778 17.5169 16.1283 16.6885 16.8288 16.0082C17.5294 15.328 18.3828 14.9875 19.389 14.9869C20.3941 14.9869 21.2472 15.3274 21.9483 16.0082C22.6494 16.6885 23 17.5169 23 18.4935C23 19.47 22.6494 20.2988 21.9483 20.9796C21.2472 21.6605 20.3941 22.0006 19.389 22ZM19.7357 18.3593V16.3019C19.7357 16.2119 19.7011 16.1333 19.6319 16.0661C19.5626 15.9989 19.4814 15.9653 19.3881 15.9653C19.296 15.9653 19.2154 15.9989 19.1462 16.0661C19.077 16.1333 19.0421 16.2122 19.0415 16.3028V18.3471C19.0415 18.4365 19.0583 18.5233 19.092 18.6074C19.1257 18.691 19.182 18.7711 19.2608 18.8476L20.6321 20.1801C20.6989 20.245 20.778 20.28 20.8695 20.2853C20.961 20.2912 21.0462 20.2561 21.125 20.1801C21.2038 20.1041 21.243 20.0241 21.2424 19.9399C21.2418 19.8558 21.2026 19.776 21.125 19.7006L19.7357 18.3593Z" fill="#1AA54E"/>
</svg>
