<svg width="30" height="30" viewBox="0 0 30 30" fill="none" xmlns="http://www.w3.org/2000/svg">
<rect width="30" height="30" rx="5" fill="#F3E8FF"/>
<path d="M18.7379 21.4667L16.835 19.4667L17.6505 18.6667L18.7379 19.7333L21.1845 17.3333L22 18.2667L18.7379 21.4667ZM15.4757 14H13.4369V18.6667H14.8641C14.932 18.1333 15.2039 17.6 15.4757 17.1333V14ZM17.5146 14V15.5333C17.9223 15.4 18.3981 15.3333 18.8738 15.3333C19.0777 15.3333 19.3495 15.3333 19.5534 15.4V14H17.5146ZM14.8641 20H8V22H15.8155C15.3398 21.4667 15 20.7333 14.8641 20ZM20.9126 11.3333L14.4563 8L8 11.3333V12.6667H20.9126V11.3333ZM11.3981 18.6667V14H9.35922V18.6667H11.3981Z" fill="#9434EA"/>
</svg>
