<svg width="31" height="31" viewBox="0 0 31 31" fill="none" xmlns="http://www.w3.org/2000/svg">
<mask id="path-1-inside-1_6026_2234" fill="white">
<path d="M15.7045 21.1591C16.4545 21.1591 17.0968 20.9832 17.6314 20.6314C18.1659 20.2795 18.4327 19.7282 18.4318 18.9773C18.4318 18.3182 18.1536 17.7841 17.5973 17.375C17.0409 16.9659 16.0464 16.5 14.6136 15.9773C13.2727 15.5 12.29 14.9318 11.6654 14.2727C11.0409 13.6136 10.7282 12.75 10.7273 11.6818C10.7273 10.75 11.0514 9.90364 11.6995 9.14273C12.3477 8.38182 13.2282 7.88727 14.3409 7.65909V7.14773C14.3409 6.82955 14.4604 6.55136 14.6995 6.31318C14.9386 6.075 15.2168 5.95545 15.5341 5.95455C15.8514 5.95364 16.13 6.07318 16.37 6.31318C16.61 6.55318 16.7291 6.83136 16.7273 7.14773V7.65909C17.3864 7.70455 17.9945 7.92636 18.5518 8.32455C19.1091 8.72273 19.5577 9.20545 19.8977 9.77273C20.0568 10.0227 20.0682 10.29 19.9318 10.5745C19.7954 10.8591 19.5682 11.0577 19.25 11.1705C18.9545 11.2841 18.6591 11.2955 18.3636 11.2045C18.0682 11.1136 17.8295 10.9432 17.6477 10.6932C17.4204 10.4205 17.1364 10.1991 16.7954 10.0291C16.4545 9.85909 16.0454 9.77364 15.5682 9.77273C14.7727 9.77273 14.1645 9.94318 13.7436 10.2841C13.3227 10.625 13.1127 11.0909 13.1136 11.6818C13.1145 12.2727 13.3759 12.7386 13.8977 13.0795C14.4195 13.4205 15.3627 13.8182 16.7273 14.2727C18.3636 14.8636 19.4545 15.5568 20 16.3523C20.5454 17.1477 20.8182 18.0227 20.8182 18.9773C20.8182 19.6364 20.7045 20.2159 20.4773 20.7159C20.25 21.2159 19.9486 21.6423 19.5732 21.995C19.1977 22.3477 18.7604 22.6318 18.2614 22.8473C17.7623 23.0627 17.2282 23.2273 16.6591 23.3409V23.8523C16.6591 24.1705 16.5395 24.4491 16.3004 24.6882C16.0614 24.9273 15.7832 25.0464 15.4659 25.0455C15.1486 25.0445 14.8704 24.9255 14.6314 24.6882C14.3923 24.4509 14.2727 24.1723 14.2727 23.8523V23.2727C13.4091 23.0909 12.6704 22.75 12.0568 22.25C11.4432 21.75 10.9545 21.1136 10.5909 20.3409C10.4545 20.0227 10.4604 19.7159 10.6086 19.4205C10.7568 19.125 10.9895 18.9205 11.3068 18.8068C11.6023 18.6932 11.8977 18.6986 12.1932 18.8232C12.4886 18.9477 12.7159 19.1468 12.875 19.4205C13.1932 20.0114 13.5968 20.4486 14.0859 20.7323C14.575 21.0159 15.1145 21.1582 15.7045 21.1591ZM15.5 30.5C12.9545 30.5 10.6136 29.9205 8.47727 28.7614C6.34091 27.6023 4.59091 26.0568 3.22727 24.125V26.4091C3.22727 26.7955 3.09636 27.1195 2.83454 27.3814C2.57273 27.6432 2.24909 27.7736 1.86364 27.7727C1.47818 27.7718 1.15455 27.6409 0.892727 27.38C0.630909 27.1191 0.5 26.7955 0.5 26.4091V20.9545C0.5 20.5682 0.630909 20.2445 0.892727 19.9836C1.15455 19.7227 1.47818 19.5918 1.86364 19.5909H7.31818C7.70454 19.5909 8.02863 19.7218 8.29045 19.9836C8.55227 20.2455 8.68272 20.5691 8.68181 20.9545C8.6809 21.34 8.55 21.6641 8.28909 21.9268C8.02818 22.1895 7.70454 22.32 7.31818 22.3182H5.30682C6.39772 23.9545 7.83545 25.2727 9.62 26.2727C11.4045 27.2727 13.3645 27.7727 15.5 27.7727C18.7045 27.7727 21.4604 26.7045 23.7677 24.5682C26.075 22.4318 27.3873 19.8068 27.7045 16.6932C27.75 16.3295 27.9091 16.0395 28.1818 15.8232C28.4545 15.6068 28.7727 15.4991 29.1363 15.5C29.5227 15.5 29.8523 15.6195 30.125 15.8586C30.3977 16.0977 30.5113 16.3873 30.4659 16.7273C30.3068 18.6591 29.8068 20.46 28.9659 22.13C28.125 23.8 27.0341 25.2545 25.6932 26.4936C24.3523 27.7327 22.8127 28.71 21.0745 29.4255C19.3364 30.1409 17.4782 30.4991 15.5 30.5ZM15.5 3.22727C12.2954 3.22727 9.54 4.29545 7.23363 6.43182C4.92727 8.56818 3.61454 11.1932 3.29545 14.3068C3.25 14.6705 3.09091 14.9605 2.81818 15.1768C2.54545 15.3932 2.22727 15.5009 1.86364 15.5C1.47727 15.5 1.14773 15.3809 0.875 15.1427C0.602273 14.9045 0.488636 14.6145 0.534091 14.2727C0.693182 12.3409 1.19318 10.54 2.03409 8.87C2.875 7.2 3.96591 5.74545 5.30682 4.50636C6.64772 3.26727 8.18772 2.29 9.92681 1.57455C11.6659 0.859091 13.5236 0.500909 15.5 0.5C18.0454 0.5 20.3864 1.07955 22.5227 2.23864C24.6591 3.39773 26.4091 4.94318 27.7727 6.875V4.59091C27.7727 4.20455 27.9036 3.88091 28.1654 3.62C28.4273 3.35909 28.7509 3.22818 29.1363 3.22727C29.5218 3.22636 29.8459 3.35727 30.1086 3.62C30.3713 3.88273 30.5018 4.20636 30.5 4.59091V10.0455C30.5 10.4318 30.3691 10.7559 30.1073 11.0177C29.8454 11.2795 29.5218 11.41 29.1363 11.4091H23.6818C23.2954 11.4091 22.9718 11.2782 22.7109 11.0164C22.45 10.7545 22.3191 10.4309 22.3182 10.0455C22.3173 9.66 22.4482 9.33636 22.7109 9.07455C22.9736 8.81273 23.2973 8.68182 23.6818 8.68182H25.6932C24.6023 7.04545 23.165 5.72727 21.3814 4.72727C19.5977 3.72727 17.6373 3.22727 15.5 3.22727Z"/>
</mask>
<path d="M15.7045 21.1591C16.4545 21.1591 17.0968 20.9832 17.6314 20.6314C18.1659 20.2795 18.4327 19.7282 18.4318 18.9773C18.4318 18.3182 18.1536 17.7841 17.5973 17.375C17.0409 16.9659 16.0464 16.5 14.6136 15.9773C13.2727 15.5 12.29 14.9318 11.6654 14.2727C11.0409 13.6136 10.7282 12.75 10.7273 11.6818C10.7273 10.75 11.0514 9.90364 11.6995 9.14273C12.3477 8.38182 13.2282 7.88727 14.3409 7.65909V7.14773C14.3409 6.82955 14.4604 6.55136 14.6995 6.31318C14.9386 6.075 15.2168 5.95545 15.5341 5.95455C15.8514 5.95364 16.13 6.07318 16.37 6.31318C16.61 6.55318 16.7291 6.83136 16.7273 7.14773V7.65909C17.3864 7.70455 17.9945 7.92636 18.5518 8.32455C19.1091 8.72273 19.5577 9.20545 19.8977 9.77273C20.0568 10.0227 20.0682 10.29 19.9318 10.5745C19.7954 10.8591 19.5682 11.0577 19.25 11.1705C18.9545 11.2841 18.6591 11.2955 18.3636 11.2045C18.0682 11.1136 17.8295 10.9432 17.6477 10.6932C17.4204 10.4205 17.1364 10.1991 16.7954 10.0291C16.4545 9.85909 16.0454 9.77364 15.5682 9.77273C14.7727 9.77273 14.1645 9.94318 13.7436 10.2841C13.3227 10.625 13.1127 11.0909 13.1136 11.6818C13.1145 12.2727 13.3759 12.7386 13.8977 13.0795C14.4195 13.4205 15.3627 13.8182 16.7273 14.2727C18.3636 14.8636 19.4545 15.5568 20 16.3523C20.5454 17.1477 20.8182 18.0227 20.8182 18.9773C20.8182 19.6364 20.7045 20.2159 20.4773 20.7159C20.25 21.2159 19.9486 21.6423 19.5732 21.995C19.1977 22.3477 18.7604 22.6318 18.2614 22.8473C17.7623 23.0627 17.2282 23.2273 16.6591 23.3409V23.8523C16.6591 24.1705 16.5395 24.4491 16.3004 24.6882C16.0614 24.9273 15.7832 25.0464 15.4659 25.0455C15.1486 25.0445 14.8704 24.9255 14.6314 24.6882C14.3923 24.4509 14.2727 24.1723 14.2727 23.8523V23.2727C13.4091 23.0909 12.6704 22.75 12.0568 22.25C11.4432 21.75 10.9545 21.1136 10.5909 20.3409C10.4545 20.0227 10.4604 19.7159 10.6086 19.4205C10.7568 19.125 10.9895 18.9205 11.3068 18.8068C11.6023 18.6932 11.8977 18.6986 12.1932 18.8232C12.4886 18.9477 12.7159 19.1468 12.875 19.4205C13.1932 20.0114 13.5968 20.4486 14.0859 20.7323C14.575 21.0159 15.1145 21.1582 15.7045 21.1591ZM15.5 30.5C12.9545 30.5 10.6136 29.9205 8.47727 28.7614C6.34091 27.6023 4.59091 26.0568 3.22727 24.125V26.4091C3.22727 26.7955 3.09636 27.1195 2.83454 27.3814C2.57273 27.6432 2.24909 27.7736 1.86364 27.7727C1.47818 27.7718 1.15455 27.6409 0.892727 27.38C0.630909 27.1191 0.5 26.7955 0.5 26.4091V20.9545C0.5 20.5682 0.630909 20.2445 0.892727 19.9836C1.15455 19.7227 1.47818 19.5918 1.86364 19.5909H7.31818C7.70454 19.5909 8.02863 19.7218 8.29045 19.9836C8.55227 20.2455 8.68272 20.5691 8.68181 20.9545C8.6809 21.34 8.55 21.6641 8.28909 21.9268C8.02818 22.1895 7.70454 22.32 7.31818 22.3182H5.30682C6.39772 23.9545 7.83545 25.2727 9.62 26.2727C11.4045 27.2727 13.3645 27.7727 15.5 27.7727C18.7045 27.7727 21.4604 26.7045 23.7677 24.5682C26.075 22.4318 27.3873 19.8068 27.7045 16.6932C27.75 16.3295 27.9091 16.0395 28.1818 15.8232C28.4545 15.6068 28.7727 15.4991 29.1363 15.5C29.5227 15.5 29.8523 15.6195 30.125 15.8586C30.3977 16.0977 30.5113 16.3873 30.4659 16.7273C30.3068 18.6591 29.8068 20.46 28.9659 22.13C28.125 23.8 27.0341 25.2545 25.6932 26.4936C24.3523 27.7327 22.8127 28.71 21.0745 29.4255C19.3364 30.1409 17.4782 30.4991 15.5 30.5ZM15.5 3.22727C12.2954 3.22727 9.54 4.29545 7.23363 6.43182C4.92727 8.56818 3.61454 11.1932 3.29545 14.3068C3.25 14.6705 3.09091 14.9605 2.81818 15.1768C2.54545 15.3932 2.22727 15.5009 1.86364 15.5C1.47727 15.5 1.14773 15.3809 0.875 15.1427C0.602273 14.9045 0.488636 14.6145 0.534091 14.2727C0.693182 12.3409 1.19318 10.54 2.03409 8.87C2.875 7.2 3.96591 5.74545 5.30682 4.50636C6.64772 3.26727 8.18772 2.29 9.92681 1.57455C11.6659 0.859091 13.5236 0.500909 15.5 0.5C18.0454 0.5 20.3864 1.07955 22.5227 2.23864C24.6591 3.39773 26.4091 4.94318 27.7727 6.875V4.59091C27.7727 4.20455 27.9036 3.88091 28.1654 3.62C28.4273 3.35909 28.7509 3.22818 29.1363 3.22727C29.5218 3.22636 29.8459 3.35727 30.1086 3.62C30.3713 3.88273 30.5018 4.20636 30.5 4.59091V10.0455C30.5 10.4318 30.3691 10.7559 30.1073 11.0177C29.8454 11.2795 29.5218 11.41 29.1363 11.4091H23.6818C23.2954 11.4091 22.9718 11.2782 22.7109 11.0164C22.45 10.7545 22.3191 10.4309 22.3182 10.0455C22.3173 9.66 22.4482 9.33636 22.7109 9.07455C22.9736 8.81273 23.2973 8.68182 23.6818 8.68182H25.6932C24.6023 7.04545 23.165 5.72727 21.3814 4.72727C19.5977 3.72727 17.6373 3.22727 15.5 3.22727Z" fill="#B1B1B1" stroke="white" mask="url(#path-1-inside-1_6026_2234)"/>
</svg>
