<svg width="31" height="30" viewBox="0 0 31 30" fill="none" xmlns="http://www.w3.org/2000/svg">
<mask id="path-1-inside-1_6026_735" fill="white">
<path d="M15.7045 20.6591C16.4545 20.6591 17.0968 20.4832 17.6314 20.1314C18.1659 19.7795 18.4327 19.2282 18.4318 18.4773C18.4318 17.8182 18.1536 17.2841 17.5973 16.875C17.0409 16.4659 16.0464 16 14.6136 15.4773C13.2727 15 12.29 14.4318 11.6654 13.7727C11.0409 13.1136 10.7282 12.25 10.7273 11.1818C10.7273 10.25 11.0514 9.40364 11.6995 8.64273C12.3477 7.88182 13.2282 7.38727 14.3409 7.15909V6.64773C14.3409 6.32955 14.4604 6.05136 14.6995 5.81318C14.9386 5.575 15.2168 5.45545 15.5341 5.45455C15.8514 5.45364 16.13 5.57318 16.37 5.81318C16.61 6.05318 16.7291 6.33136 16.7273 6.64773V7.15909C17.3864 7.20455 17.9945 7.42636 18.5518 7.82455C19.1091 8.22273 19.5577 8.70545 19.8977 9.27273C20.0568 9.52273 20.0682 9.79 19.9318 10.0745C19.7954 10.3591 19.5682 10.5577 19.25 10.6705C18.9545 10.7841 18.6591 10.7955 18.3636 10.7045C18.0682 10.6136 17.8295 10.4432 17.6477 10.1932C17.4204 9.92045 17.1364 9.69909 16.7954 9.52909C16.4545 9.35909 16.0454 9.27364 15.5682 9.27273C14.7727 9.27273 14.1645 9.44318 13.7436 9.78409C13.3227 10.125 13.1127 10.5909 13.1136 11.1818C13.1145 11.7727 13.3759 12.2386 13.8977 12.5795C14.4195 12.9205 15.3627 13.3182 16.7273 13.7727C18.3636 14.3636 19.4545 15.0568 20 15.8523C20.5454 16.6477 20.8182 17.5227 20.8182 18.4773C20.8182 19.1364 20.7045 19.7159 20.4773 20.2159C20.25 20.7159 19.9486 21.1423 19.5732 21.495C19.1977 21.8477 18.7604 22.1318 18.2614 22.3473C17.7623 22.5627 17.2282 22.7273 16.6591 22.8409V23.3523C16.6591 23.6705 16.5395 23.9491 16.3004 24.1882C16.0614 24.4273 15.7832 24.5464 15.4659 24.5455C15.1486 24.5445 14.8704 24.4255 14.6314 24.1882C14.3923 23.9509 14.2727 23.6723 14.2727 23.3523V22.7727C13.4091 22.5909 12.6704 22.25 12.0568 21.75C11.4432 21.25 10.9545 20.6136 10.5909 19.8409C10.4545 19.5227 10.4604 19.2159 10.6086 18.9205C10.7568 18.625 10.9895 18.4205 11.3068 18.3068C11.6023 18.1932 11.8977 18.1986 12.1932 18.3232C12.4886 18.4477 12.7159 18.6468 12.875 18.9205C13.1932 19.5114 13.5968 19.9486 14.0859 20.2323C14.575 20.5159 15.1145 20.6582 15.7045 20.6591ZM15.5 30C12.9545 30 10.6136 29.4205 8.47727 28.2614C6.34091 27.1023 4.59091 25.5568 3.22727 23.625V25.9091C3.22727 26.2955 3.09636 26.6195 2.83454 26.8814C2.57273 27.1432 2.24909 27.2736 1.86364 27.2727C1.47818 27.2718 1.15455 27.1409 0.892727 26.88C0.630909 26.6191 0.5 26.2955 0.5 25.9091V20.4545C0.5 20.0682 0.630909 19.7445 0.892727 19.4836C1.15455 19.2227 1.47818 19.0918 1.86364 19.0909H7.31818C7.70454 19.0909 8.02863 19.2218 8.29045 19.4836C8.55227 19.7455 8.68272 20.0691 8.68181 20.4545C8.6809 20.84 8.55 21.1641 8.28909 21.4268C8.02818 21.6895 7.70454 21.82 7.31818 21.8182H5.30682C6.39772 23.4545 7.83545 24.7727 9.62 25.7727C11.4045 26.7727 13.3645 27.2727 15.5 27.2727C18.7045 27.2727 21.4604 26.2045 23.7677 24.0682C26.075 21.9318 27.3873 19.3068 27.7045 16.1932C27.75 15.8295 27.9091 15.5395 28.1818 15.3232C28.4545 15.1068 28.7727 14.9991 29.1363 15C29.5227 15 29.8523 15.1195 30.125 15.3586C30.3977 15.5977 30.5113 15.8873 30.4659 16.2273C30.3068 18.1591 29.8068 19.96 28.9659 21.63C28.125 23.3 27.0341 24.7545 25.6932 25.9936C24.3523 27.2327 22.8127 28.21 21.0745 28.9255C19.3364 29.6409 17.4782 29.9991 15.5 30ZM15.5 2.72727C12.2954 2.72727 9.54 3.79545 7.23363 5.93182C4.92727 8.06818 3.61454 10.6932 3.29545 13.8068C3.25 14.1705 3.09091 14.4605 2.81818 14.6768C2.54545 14.8932 2.22727 15.0009 1.86364 15C1.47727 15 1.14773 14.8809 0.875 14.6427C0.602273 14.4045 0.488636 14.1145 0.534091 13.7727C0.693182 11.8409 1.19318 10.04 2.03409 8.37C2.875 6.7 3.96591 5.24545 5.30682 4.00636C6.64772 2.76727 8.18772 1.79 9.92681 1.07455C11.6659 0.359091 13.5236 0.000909091 15.5 0C18.0454 0 20.3864 0.579546 22.5227 1.73864C24.6591 2.89773 26.4091 4.44318 27.7727 6.375V4.09091C27.7727 3.70455 27.9036 3.38091 28.1654 3.12C28.4273 2.85909 28.7509 2.72818 29.1363 2.72727C29.5218 2.72636 29.8459 2.85727 30.1086 3.12C30.3713 3.38273 30.5018 3.70636 30.5 4.09091V9.54545C30.5 9.93182 30.3691 10.2559 30.1073 10.5177C29.8454 10.7795 29.5218 10.91 29.1363 10.9091H23.6818C23.2954 10.9091 22.9718 10.7782 22.7109 10.5164C22.45 10.2545 22.3191 9.93091 22.3182 9.54545C22.3173 9.16 22.4482 8.83636 22.7109 8.57455C22.9736 8.31273 23.2973 8.18182 23.6818 8.18182H25.6932C24.6023 6.54545 23.165 5.22727 21.3814 4.22727C19.5977 3.22727 17.6373 2.72727 15.5 2.72727Z"/>
</mask>
<path d="M15.7045 20.6591C16.4545 20.6591 17.0968 20.4832 17.6314 20.1314C18.1659 19.7795 18.4327 19.2282 18.4318 18.4773C18.4318 17.8182 18.1536 17.2841 17.5973 16.875C17.0409 16.4659 16.0464 16 14.6136 15.4773C13.2727 15 12.29 14.4318 11.6654 13.7727C11.0409 13.1136 10.7282 12.25 10.7273 11.1818C10.7273 10.25 11.0514 9.40364 11.6995 8.64273C12.3477 7.88182 13.2282 7.38727 14.3409 7.15909V6.64773C14.3409 6.32955 14.4604 6.05136 14.6995 5.81318C14.9386 5.575 15.2168 5.45545 15.5341 5.45455C15.8514 5.45364 16.13 5.57318 16.37 5.81318C16.61 6.05318 16.7291 6.33136 16.7273 6.64773V7.15909C17.3864 7.20455 17.9945 7.42636 18.5518 7.82455C19.1091 8.22273 19.5577 8.70545 19.8977 9.27273C20.0568 9.52273 20.0682 9.79 19.9318 10.0745C19.7954 10.3591 19.5682 10.5577 19.25 10.6705C18.9545 10.7841 18.6591 10.7955 18.3636 10.7045C18.0682 10.6136 17.8295 10.4432 17.6477 10.1932C17.4204 9.92045 17.1364 9.69909 16.7954 9.52909C16.4545 9.35909 16.0454 9.27364 15.5682 9.27273C14.7727 9.27273 14.1645 9.44318 13.7436 9.78409C13.3227 10.125 13.1127 10.5909 13.1136 11.1818C13.1145 11.7727 13.3759 12.2386 13.8977 12.5795C14.4195 12.9205 15.3627 13.3182 16.7273 13.7727C18.3636 14.3636 19.4545 15.0568 20 15.8523C20.5454 16.6477 20.8182 17.5227 20.8182 18.4773C20.8182 19.1364 20.7045 19.7159 20.4773 20.2159C20.25 20.7159 19.9486 21.1423 19.5732 21.495C19.1977 21.8477 18.7604 22.1318 18.2614 22.3473C17.7623 22.5627 17.2282 22.7273 16.6591 22.8409V23.3523C16.6591 23.6705 16.5395 23.9491 16.3004 24.1882C16.0614 24.4273 15.7832 24.5464 15.4659 24.5455C15.1486 24.5445 14.8704 24.4255 14.6314 24.1882C14.3923 23.9509 14.2727 23.6723 14.2727 23.3523V22.7727C13.4091 22.5909 12.6704 22.25 12.0568 21.75C11.4432 21.25 10.9545 20.6136 10.5909 19.8409C10.4545 19.5227 10.4604 19.2159 10.6086 18.9205C10.7568 18.625 10.9895 18.4205 11.3068 18.3068C11.6023 18.1932 11.8977 18.1986 12.1932 18.3232C12.4886 18.4477 12.7159 18.6468 12.875 18.9205C13.1932 19.5114 13.5968 19.9486 14.0859 20.2323C14.575 20.5159 15.1145 20.6582 15.7045 20.6591ZM15.5 30C12.9545 30 10.6136 29.4205 8.47727 28.2614C6.34091 27.1023 4.59091 25.5568 3.22727 23.625V25.9091C3.22727 26.2955 3.09636 26.6195 2.83454 26.8814C2.57273 27.1432 2.24909 27.2736 1.86364 27.2727C1.47818 27.2718 1.15455 27.1409 0.892727 26.88C0.630909 26.6191 0.5 26.2955 0.5 25.9091V20.4545C0.5 20.0682 0.630909 19.7445 0.892727 19.4836C1.15455 19.2227 1.47818 19.0918 1.86364 19.0909H7.31818C7.70454 19.0909 8.02863 19.2218 8.29045 19.4836C8.55227 19.7455 8.68272 20.0691 8.68181 20.4545C8.6809 20.84 8.55 21.1641 8.28909 21.4268C8.02818 21.6895 7.70454 21.82 7.31818 21.8182H5.30682C6.39772 23.4545 7.83545 24.7727 9.62 25.7727C11.4045 26.7727 13.3645 27.2727 15.5 27.2727C18.7045 27.2727 21.4604 26.2045 23.7677 24.0682C26.075 21.9318 27.3873 19.3068 27.7045 16.1932C27.75 15.8295 27.9091 15.5395 28.1818 15.3232C28.4545 15.1068 28.7727 14.9991 29.1363 15C29.5227 15 29.8523 15.1195 30.125 15.3586C30.3977 15.5977 30.5113 15.8873 30.4659 16.2273C30.3068 18.1591 29.8068 19.96 28.9659 21.63C28.125 23.3 27.0341 24.7545 25.6932 25.9936C24.3523 27.2327 22.8127 28.21 21.0745 28.9255C19.3364 29.6409 17.4782 29.9991 15.5 30ZM15.5 2.72727C12.2954 2.72727 9.54 3.79545 7.23363 5.93182C4.92727 8.06818 3.61454 10.6932 3.29545 13.8068C3.25 14.1705 3.09091 14.4605 2.81818 14.6768C2.54545 14.8932 2.22727 15.0009 1.86364 15C1.47727 15 1.14773 14.8809 0.875 14.6427C0.602273 14.4045 0.488636 14.1145 0.534091 13.7727C0.693182 11.8409 1.19318 10.04 2.03409 8.37C2.875 6.7 3.96591 5.24545 5.30682 4.00636C6.64772 2.76727 8.18772 1.79 9.92681 1.07455C11.6659 0.359091 13.5236 0.000909091 15.5 0C18.0454 0 20.3864 0.579546 22.5227 1.73864C24.6591 2.89773 26.4091 4.44318 27.7727 6.375V4.09091C27.7727 3.70455 27.9036 3.38091 28.1654 3.12C28.4273 2.85909 28.7509 2.72818 29.1363 2.72727C29.5218 2.72636 29.8459 2.85727 30.1086 3.12C30.3713 3.38273 30.5018 3.70636 30.5 4.09091V9.54545C30.5 9.93182 30.3691 10.2559 30.1073 10.5177C29.8454 10.7795 29.5218 10.91 29.1363 10.9091H23.6818C23.2954 10.9091 22.9718 10.7782 22.7109 10.5164C22.45 10.2545 22.3191 9.93091 22.3182 9.54545C22.3173 9.16 22.4482 8.83636 22.7109 8.57455C22.9736 8.31273 23.2973 8.18182 23.6818 8.18182H25.6932C24.6023 6.54545 23.165 5.22727 21.3814 4.22727C19.5977 3.22727 17.6373 2.72727 15.5 2.72727Z" fill="#354E73" stroke="white" mask="url(#path-1-inside-1_6026_735)"/>
</svg>
