<svg width="27" height="31" viewBox="0 0 27 31" fill="none" xmlns="http://www.w3.org/2000/svg">
<path d="M13.5 0.900391C14.1724 0.900391 14.761 1.10003 15.2803 1.50195L15.2822 1.50391L25.4072 9.21777L25.4111 9.2207C25.7807 9.49606 26.0707 9.84664 26.2832 10.2773C26.4954 10.7075 26.6005 11.1605 26.5996 11.6416V27.0713C26.5996 27.9091 26.3104 28.6157 25.7227 29.2129C25.135 29.8099 24.4426 30.1006 23.625 30.0996H16.875C16.4999 30.0996 16.2035 29.9758 15.959 29.7266C15.744 29.5074 15.6216 29.2462 15.5938 28.9258L15.5879 28.7852V19.8145H11.4121V28.7861C11.412 29.1727 11.2872 29.4775 11.041 29.7275C10.7952 29.9771 10.4993 30.1005 10.126 30.0996H3.375C2.55576 30.0996 1.86374 29.8086 1.27734 29.2129C0.690882 28.6171 0.40147 27.9106 0.400391 27.0713V11.6426C0.400431 11.1612 0.505558 10.7077 0.717773 10.2773C0.930393 9.84637 1.22125 9.49603 1.58984 9.2207L1.59277 9.21777L11.7178 1.50391L11.7197 1.50195C12.239 1.10003 12.8276 0.900391 13.5 0.900391ZM24.0254 11.4443L23.8672 11.3242L13.7422 3.61035L13.5 3.42578L13.2578 3.61035L3.13281 11.3242L2.97461 11.4443V27.4717H8.83789V18.5C8.83789 18.1133 8.96227 17.8093 9.20801 17.5605C9.42351 17.3424 9.67802 17.2192 9.98926 17.1914L10.126 17.1855H16.875C17.25 17.1855 17.5471 17.31 17.793 17.5596C18.0391 17.8096 18.163 18.114 18.1621 18.499V27.4717H24.0254V11.4443Z" fill="#354E73" stroke="white" stroke-width="0.8"/>
</svg>
