<svg width="29" height="33" viewBox="0 0 29 33" fill="none" xmlns="http://www.w3.org/2000/svg">
<path d="M17.6113 0.75C23.4712 0.750121 28.25 5.63989 28.25 11.7002C28.25 13.7509 27.5839 16.0642 26.5693 18.3936C25.5561 20.7199 24.2032 23.0453 22.8467 25.1133C21.4907 27.1805 20.1339 28.9867 19.1162 30.2764C18.6076 30.9209 18.1841 31.4362 17.8877 31.79C17.7774 31.9217 17.6841 32.0309 17.6113 32.1162C17.5385 32.0309 17.4453 31.9218 17.335 31.79C17.0386 31.4363 16.6151 30.921 16.1064 30.2764C15.0888 28.9867 13.732 27.1804 12.376 25.1133C11.0195 23.0453 9.66561 20.7199 8.65234 18.3936C7.63786 16.0643 6.9727 13.7508 6.97266 11.7002C6.97266 5.63982 11.7513 0.75 17.6113 0.75ZM8.32812 1.00098C7.30387 2.41333 6.16158 3.94586 5.23438 5.57422C4.16126 7.45886 3.36133 9.50318 3.36133 11.7002C3.3614 15.3737 5.36984 19.6886 7.52637 23.2861C9.57798 26.7086 11.7914 29.5254 12.624 30.5908L11.3838 32.1104C11.3118 32.0259 11.2201 31.9187 11.1123 31.79C10.8159 31.4362 10.3924 30.9209 9.88379 30.2764C8.86614 28.9867 7.50934 27.1805 6.15332 25.1133C4.79681 23.0453 3.44393 20.7199 2.43066 18.3936C1.41613 16.0642 0.750042 13.7509 0.75 11.7002C0.75 7.03084 4.23854 2.61795 8.32812 1.00098ZM17.6113 3.4502C13.1733 3.4502 9.58301 7.15281 9.58301 11.7002C9.58301 12.5248 9.58675 13.7589 10.5742 16.1377C11.557 18.5052 13.514 22.0074 17.4082 27.3828L17.6113 27.6621L17.8135 27.3828C21.7078 22.0073 23.6647 18.5052 24.6475 16.1377C25.635 13.7587 25.6387 12.5248 25.6387 11.7002C25.6387 7.15288 22.0492 3.45032 17.6113 3.4502ZM17.6113 7.9502C19.1076 7.95029 20.3936 8.88173 20.958 10.2129L21.0605 10.4844C21.1781 10.8796 21.25 11.2844 21.25 11.7002C21.25 12.1935 21.1551 12.6823 20.9717 13.1377C20.7883 13.593 20.5198 14.0067 20.1816 14.3545C19.8434 14.7023 19.4419 14.9772 19.001 15.165C18.5601 15.3529 18.0881 15.4502 17.6113 15.4502C16.0321 15.4502 14.7043 14.4234 14.1758 12.9629C14.0448 12.5731 13.9727 12.1365 13.9727 11.7002C13.9727 10.7035 14.357 9.74863 15.04 9.0459C15.723 8.34338 16.6485 7.9502 17.6113 7.9502Z" fill="#B1B1B1" stroke="white" stroke-width="0.5"/>
</svg>
