<svg width="30" height="30" viewBox="0 0 30 30" fill="none" xmlns="http://www.w3.org/2000/svg">
<rect width="30" height="30" rx="5" fill="#DBEAFE"/>
<path d="M17.9773 16.2857C17.05 16.2857 15.605 16.5529 14.5 17.0714C13.395 16.545 11.95 16.2857 11.0227 16.2857C9.34591 16.2857 6 17.1343 6 18.8393V21H23V18.8393C23 17.1343 19.6541 16.2857 17.9773 16.2857ZM14.8864 19.8214H7.15909V18.8393C7.15909 18.415 9.13727 17.4643 11.0227 17.4643C12.9082 17.4643 14.8864 18.415 14.8864 18.8393V19.8214ZM21.8409 19.8214H16.0455V18.8393C16.0455 18.4779 15.8909 18.1636 15.6436 17.8807C16.3236 17.645 17.1582 17.4643 17.9773 17.4643C19.8627 17.4643 21.8409 18.415 21.8409 18.8393V19.8214ZM11.0227 15.5C12.5141 15.5 13.7273 14.2664 13.7273 12.75C13.7273 11.2336 12.5141 10 11.0227 10C9.53136 10 8.31818 11.2336 8.31818 12.75C8.31818 14.2664 9.53136 15.5 11.0227 15.5ZM11.0227 11.1786C11.8727 11.1786 12.5682 11.8857 12.5682 12.75C12.5682 13.6143 11.8727 14.3214 11.0227 14.3214C10.1727 14.3214 9.47727 13.6143 9.47727 12.75C9.47727 11.8857 10.1727 11.1786 11.0227 11.1786ZM17.9773 15.5C19.4686 15.5 20.6818 14.2664 20.6818 12.75C20.6818 11.2336 19.4686 10 17.9773 10C16.4859 10 15.2727 11.2336 15.2727 12.75C15.2727 14.2664 16.4859 15.5 17.9773 15.5ZM17.9773 11.1786C18.8273 11.1786 19.5227 11.8857 19.5227 12.75C19.5227 13.6143 18.8273 14.3214 17.9773 14.3214C17.1273 14.3214 16.4318 13.6143 16.4318 12.75C16.4318 11.8857 17.1273 11.1786 17.9773 11.1786Z" fill="#2563EB"/>
</svg>
