<svg width="33" height="33" viewBox="0 0 33 33" fill="none" xmlns="http://www.w3.org/2000/svg">
<path d="M16.5 0.75C25.1842 0.75 32.25 7.81576 32.25 16.5C32.25 25.1842 25.1842 32.25 16.5 32.25C7.81576 32.25 0.75 25.1842 0.75 16.5C0.75 7.81576 7.81576 0.75 16.5 0.75ZM16.5 2.71191C8.90039 2.71191 2.71191 8.90039 2.71191 16.5C2.71191 24.0996 8.90039 30.2881 16.5 30.2881C24.0996 30.2881 30.2881 24.1035 30.2881 16.5C30.2881 8.89654 24.1035 2.71191 16.5 2.71191Z" fill="#B1B1B1" stroke="white" stroke-width="0.5"/>
<path d="M21.1631 21.2324C23.3425 21.2324 25.3552 21.7506 26.9873 22.7246C27.474 23.0157 27.7182 23.3127 27.8301 23.5781C26.2018 26.1752 23.701 28.1409 20.751 29.1338C17.7994 30.1271 14.5873 30.0842 11.665 29.0156C11.6062 28.8131 11.6026 28.5355 11.6338 28.2393C11.6677 27.9167 11.7395 27.5944 11.7979 27.3672V27.3662C12.2901 25.4435 13.5106 23.8462 15.335 22.748C16.956 21.7725 19.0257 21.2324 21.1631 21.2324ZM9.8623 20.6846C10.9026 20.6846 11.7621 20.7917 12.5176 20.9922L12.8359 21.084C12.9063 21.1069 12.9693 21.1473 13.0176 21.2012C13.0662 21.2554 13.0988 21.3215 13.1123 21.3916C13.1258 21.4617 13.1196 21.5344 13.0947 21.6016C13.0698 21.6688 13.026 21.7283 12.9688 21.7744C11.2941 23.1076 10.2113 24.76 9.70312 26.7412C9.59385 27.1509 9.52401 27.5694 9.48926 27.9912C7.1873 26.6433 5.35183 24.6554 4.21387 22.2832C4.4747 22.2118 4.79637 22.1142 5.12207 21.918C6.44083 21.1244 8.20152 20.6846 9.8623 20.6846ZM9.86133 11.0117C11.0201 11.0117 12.0539 11.442 12.7979 12.2188C13.541 12.9947 13.9202 14.0656 13.835 15.2119C13.6672 17.4803 11.8708 19.3056 9.8623 19.3057C7.85022 19.3057 6.05268 17.4797 5.8877 15.208C5.80368 14.0509 6.1716 12.9877 6.91895 12.209C7.66717 11.4294 8.70152 11.0117 9.86133 11.0117ZM21.1631 9.15039C22.5494 9.15042 23.798 9.66189 24.6836 10.5859C25.5685 11.5093 26.0161 12.7906 25.915 14.168V14.1689C25.8275 15.4535 25.2931 16.6708 24.4004 17.6191C23.4969 18.5602 22.3474 19.0732 21.1631 19.0732C19.9779 19.0732 18.8276 18.5602 17.9248 17.6191H17.9238C17.0299 16.6712 16.496 15.4521 16.4102 14.167L16.3975 13.9072C16.3654 12.6175 16.8012 11.4442 17.6328 10.5771C18.5208 9.65145 19.7653 9.15039 21.1631 9.15039Z" fill="#B1B1B1" stroke="white" stroke-width="0.3"/>
</svg>
